{"glyphs":{"0":{"ha":1017,"x_min":0,"x_max":949,"o":"m 475 0 q 139 139 278 0 q 0 475 0 278 q 139 810 0 671 q 475 949 278 949 q 810 810 671 949 q 949 475 949 671 q 810 139 949 278 q 475 0 671 0 m 475 271 q 618 331 559 271 q 678 475 678 391 q 618 618 678 559 q 475 678 559 678 q 331 618 391 678 q 271 475 271 559 q 331 331 271 391 q 475 271 391 271 z "},"1":{"ha":339,"x_min":0,"x_max":271,"o":"m 271 949 l 271 0 l 0 0 l 0 949 l 271 949 z "},"2":{"ha":949,"x_min":0,"x_max":882,"o":"m 475 949 q 882 638 882 949 q 475 339 882 339 l 407 339 q 271 311 271 339 l 271 271 l 882 271 l 882 0 l 0 0 l 0 311 q 407 610 0 610 l 543 610 q 610 638 610 610 q 543 678 610 678 l 0 678 l 0 949 l 475 949 z "},"3":{"ha":949,"x_min":0,"x_max":882,"o":"m 746 475 q 882 271 882 475 q 475 0 882 0 l 0 0 l 0 271 l 543 271 q 610 305 610 271 q 543 339 610 339 l 271 339 l 271 610 l 543 610 q 610 644 610 610 q 543 678 610 678 l 0 678 l 0 949 l 475 949 q 882 678 882 949 q 746 475 882 475 z "},"4":{"ha":949,"x_min":0,"x_max":882,"o":"m 0 949 l 271 949 l 271 610 l 610 610 l 610 949 l 882 949 l 882 0 l 610 0 l 610 339 l 0 339 l 0 949 z "},"5":{"ha":949,"x_min":0,"x_max":882,"o":"m 0 0 l 0 271 l 543 271 q 610 311 610 271 q 543 339 610 339 l 0 339 l 0 949 l 882 949 l 882 678 l 271 678 l 271 610 l 475 610 q 882 311 882 610 q 475 0 882 0 l 0 0 z "},"6":{"ha":949,"x_min":0,"x_max":882,"o":"m 407 0 q 0 311 0 0 l 0 949 l 271 949 l 271 610 l 475 610 q 882 311 882 610 q 475 0 882 0 l 407 0 m 561 271 q 610 305 610 271 q 561 339 610 339 l 321 339 q 271 305 271 339 q 321 271 271 271 l 561 271 z "},"7":{"ha":949,"x_min":0,"x_max":882,"o":"m 882 678 l 339 0 l 0 0 l 543 678 l 0 678 l 0 949 l 882 949 l 882 678 z "},"8":{"ha":949,"x_min":0,"x_max":882,"o":"m 475 610 q 610 644 610 610 q 475 678 610 678 l 407 678 q 271 642 271 676 q 392 610 271 610 l 475 610 m 407 271 l 475 271 q 610 307 610 273 q 490 339 610 339 l 407 339 q 271 305 271 339 q 407 271 271 271 m 136 475 q 0 678 0 475 q 407 949 0 949 l 475 949 q 882 678 882 949 q 746 475 882 475 q 882 271 882 475 q 475 0 882 0 l 407 0 q 0 271 0 0 q 136 475 0 475 z "},"9":{"ha":949,"x_min":0,"x_max":882,"o":"m 475 949 q 882 638 882 949 l 882 0 l 610 0 l 610 339 l 407 339 q 0 638 0 339 q 407 949 0 949 l 475 949 m 321 678 q 271 644 271 678 q 321 610 271 610 l 561 610 q 610 644 610 610 q 561 678 610 678 l 321 678 z "},"\u0000":{"ha":0,"x_min":0,"x_max":0,"o":""}," ":{"ha":345,"x_min":0,"x_max":0,"o":""},"!":{"ha":407,"x_min":68,"x_max":339,"o":"m 68 339 l 68 949 l 339 949 l 339 339 l 68 339 m 203 0 q 107 40 147 0 q 68 136 68 79 q 107 232 68 192 q 203 271 147 271 q 299 232 260 271 q 339 136 339 192 q 299 40 339 79 q 203 0 260 0 z "},"\"":{"ha":746,"x_min":68,"x_max":678,"o":"m 339 949 l 339 543 l 68 543 l 68 949 l 339 949 m 678 949 l 678 543 l 407 543 l 407 949 l 678 949 z "},"#":{"ha":1085,"x_min":68,"x_max":1017,"o":"m 136 407 l 136 543 l 68 543 l 68 814 l 136 814 l 136 949 l 407 949 l 407 814 l 678 814 l 678 949 l 949 949 l 949 814 l 1017 814 l 1017 543 l 949 543 l 949 407 l 1017 407 l 1017 136 l 949 136 l 949 0 l 678 0 l 678 136 l 407 136 l 407 0 l 136 0 l 136 136 l 68 136 l 68 407 l 136 407 m 407 543 l 407 407 l 678 407 l 678 543 l 407 543 z "},"$":{"ha":1017,"x_min":68,"x_max":949,"o":"m 407 949 l 407 1085 l 678 1085 l 678 949 l 949 949 l 949 678 l 407 678 q 339 647 339 678 q 407 610 339 610 l 610 610 q 949 308 949 610 q 678 3 949 33 l 678 -136 l 407 -136 l 407 0 l 68 0 l 68 271 l 610 271 q 678 308 678 271 q 610 339 678 339 l 407 339 q 68 647 68 339 q 407 949 68 949 z "},"%":{"ha":1017,"x_min":68,"x_max":949,"o":"m 949 949 l 374 0 l 68 0 l 646 949 l 949 949 m 203 610 q 107 650 147 610 q 68 746 68 690 q 107 842 68 802 q 203 882 147 882 q 299 842 260 882 q 339 746 339 802 q 299 650 339 690 q 203 610 260 610 m 814 68 q 718 107 758 68 q 678 203 678 147 q 718 299 678 260 q 814 339 758 339 q 910 299 870 339 q 949 203 949 260 q 910 107 949 147 q 814 68 870 68 z "},"&":{"ha":814,"x_min":68,"x_max":746,"o":"m 543 610 l 746 610 l 746 339 l 543 339 l 543 136 l 271 136 l 271 339 l 68 339 l 68 610 l 271 610 l 271 814 l 543 814 l 543 610 z "},"'":{"ha":407,"x_min":68,"x_max":339,"o":"m 339 949 l 339 543 l 68 543 l 68 949 l 339 949 z "},"(":{"ha":678,"x_min":68,"x_max":543,"o":"m 68 610 q 543 1085 68 1085 l 543 814 q 339 610 339 814 l 339 339 q 543 136 339 136 l 543 -136 q 68 339 68 -136 l 68 610 z "},")":{"ha":678,"x_min":136,"x_max":610,"o":"m 610 339 q 136 -136 610 -136 l 136 136 q 339 339 339 136 l 339 610 q 136 814 339 814 l 136 1085 q 610 610 610 1085 l 610 339 z "},"*":{"ha":814,"x_min":68,"x_max":746,"o":"m 543 746 l 746 746 l 746 475 l 543 475 l 543 271 l 271 271 l 271 475 l 68 475 l 68 746 l 271 746 l 271 949 l 543 949 l 543 746 z "},"+":{"ha":814,"x_min":68,"x_max":746,"o":"m 543 610 l 746 610 l 746 339 l 543 339 l 543 136 l 271 136 l 271 339 l 68 339 l 68 610 l 271 610 l 271 814 l 543 814 l 543 610 z "},",":{"ha":407,"x_min":68,"x_max":339,"o":"m 339 271 l 339 -203 l 68 -203 l 68 271 l 339 271 z "},"-":{"ha":814,"x_min":68,"x_max":746,"o":"m 746 610 l 746 339 l 68 339 l 68 610 l 746 610 z "},".":{"ha":407,"x_min":68,"x_max":339,"o":"m 203 0 q 107 40 147 0 q 68 136 68 79 q 107 232 68 192 q 203 271 147 271 q 299 232 260 271 q 339 136 339 192 q 299 40 339 79 q 203 0 260 0 z "},"/":{"ha":1017,"x_min":27,"x_max":919,"o":"m 919 1085 l 311 -136 l 27 -136 l 644 1085 l 919 1085 z "},":":{"ha":407,"x_min":68,"x_max":339,"o":"m 203 136 q 107 175 147 136 q 68 271 68 215 q 107 367 68 328 q 203 407 147 407 q 299 367 260 407 q 339 271 339 328 q 299 175 339 215 q 203 136 260 136 m 203 543 q 107 582 147 543 q 68 678 68 622 q 107 774 68 734 q 203 814 147 814 q 299 774 260 814 q 339 678 339 734 q 299 582 339 622 q 203 543 260 543 z "},";":{"ha":407,"x_min":68,"x_max":339,"o":"m 339 814 l 339 543 l 68 543 l 68 814 l 339 814 m 339 407 l 339 -68 l 68 -68 l 68 407 l 339 407 z "},"<":{"ha":882,"x_min":68,"x_max":814,"o":"m 68 610 l 814 949 l 814 678 l 339 475 l 814 271 l 814 0 l 68 339 l 68 610 z "},"=":{"ha":814,"x_min":68,"x_max":746,"o":"m 746 814 l 746 543 l 68 543 l 68 814 l 746 814 m 746 407 l 746 136 l 68 136 l 68 407 l 746 407 z "},">":{"ha":882,"x_min":68,"x_max":814,"o":"m 814 339 l 68 0 l 68 271 l 543 475 l 68 678 l 68 949 l 814 610 l 814 339 z "},"?":{"ha":1017,"x_min":68,"x_max":949,"o":"m 339 339 l 339 610 l 543 610 q 610 638 610 610 q 543 678 610 678 l 68 678 l 68 949 l 543 949 q 949 638 949 949 q 543 339 949 339 l 339 339 m 475 0 q 379 40 418 0 q 339 136 339 79 q 379 232 339 192 q 475 271 418 271 q 571 232 531 271 q 610 136 610 192 q 571 40 610 79 q 475 0 531 0 z "},"@":{"ha":1017,"x_min":0,"x_max":956,"o":"m 488 288 q 352 243 435 243 q 239 288 275 243 q 213 365 213 319 q 218 409 213 385 q 345 625 243 531 q 566 719 447 719 q 733 667 627 719 q 644 469 657 507 q 625 404 631 431 q 623 388 623 395 q 632 374 623 374 q 728 437 682 374 q 792 587 774 500 q 804 663 804 629 q 769 757 804 722 q 614 813 713 813 q 328 694 456 813 q 163 395 201 576 q 155 323 155 357 q 190 206 155 254 q 350 135 242 135 q 467 155 407 135 q 581 222 528 174 l 643 111 q 478 28 570 57 q 309 0 387 0 q 58 106 141 0 q 0 286 0 180 q 11 382 0 331 q 244 786 62 624 q 655 948 426 948 q 900 857 820 948 q 956 695 956 792 q 946 607 956 654 q 818 358 916 467 q 597 250 720 250 q 488 288 514 250 m 537 601 q 441 543 490 601 q 377 416 392 484 q 375 397 375 406 q 398 372 375 372 q 459 399 430 372 q 508 473 488 426 q 556 595 527 519 q 537 601 551 601 z "},"A":{"ha":1017,"x_min":0,"x_max":949,"o":"m 319 136 l 271 0 l 0 0 l 339 949 l 610 949 l 949 0 l 678 0 l 630 136 l 319 136 m 566 407 l 475 678 l 385 407 l 566 407 z "},"B":{"ha":949,"x_min":0,"x_max":882,"o":"m 271 573 l 482 573 q 610 642 610 573 q 475 722 610 720 l 271 722 l 271 573 m 271 237 l 482 237 q 610 303 610 237 q 475 377 610 375 l 271 377 l 271 237 m 0 0 l 0 949 l 475 949 q 882 644 882 949 q 746 475 882 475 q 882 301 882 475 q 475 0 882 0 l 0 0 z "},"C":{"ha":983,"x_min":0,"x_max":916,"o":"m 810 139 q 475 0 671 0 q 139 139 278 0 q 0 475 0 278 q 139 810 0 671 q 475 949 278 949 q 810 810 671 949 q 916 656 880 741 l 668 540 q 618 618 654 583 q 475 678 559 678 q 331 618 391 678 q 271 475 271 559 q 331 331 271 391 q 475 271 391 271 q 618 331 559 271 q 666 404 651 363 l 915 294 q 810 139 880 209 z "},"D":{"ha":949,"x_min":0,"x_max":882,"o":"m 0 0 l 0 949 l 475 949 q 882 475 882 949 q 475 0 882 0 l 0 0 m 271 678 l 271 271 l 475 271 q 610 475 610 271 q 475 678 610 678 l 271 678 z "},"E":{"ha":882,"x_min":0,"x_max":814,"o":"m 814 949 l 814 678 l 271 678 l 271 610 l 678 610 l 678 339 l 271 339 l 271 271 l 814 271 l 814 0 l 0 0 l 0 949 l 814 949 z "},"F":{"ha":882,"x_min":0,"x_max":814,"o":"m 814 949 l 814 678 l 271 678 l 271 610 l 814 610 l 814 339 l 271 339 l 271 0 l 0 0 l 0 949 l 814 949 z "},"G":{"ha":1017,"x_min":0,"x_max":949,"o":"m 626 339 l 475 339 l 475 610 l 882 610 l 930 610 q 949 475 949 545 q 810 139 949 278 q 475 0 671 0 q 139 139 278 0 q 0 475 0 278 q 139 810 0 671 q 475 949 278 949 q 810 810 671 949 q 836 784 823 798 l 593 640 q 475 678 542 678 q 331 618 391 678 q 271 475 271 559 q 331 331 271 391 q 475 271 391 271 q 618 331 559 271 q 626 339 623 335 z "},"H":{"ha":949,"x_min":0,"x_max":882,"o":"m 0 949 l 271 949 l 271 610 l 610 610 l 610 949 l 882 949 l 882 0 l 610 0 l 610 339 l 271 339 l 271 0 l 0 0 l 0 949 z "},"I":{"ha":339,"x_min":0,"x_max":271,"o":"m 271 949 l 271 0 l 0 0 l 0 949 l 271 949 z "},"J":{"ha":882,"x_min":2,"x_max":814,"o":"m 543 949 l 814 949 l 814 475 q 407 0 814 0 q 2 406 31 0 l 276 406 q 407 271 296 271 q 543 475 543 271 l 543 949 z "},"K":{"ha":949,"x_min":0,"x_max":882,"o":"m 271 610 l 543 949 l 882 949 l 492 475 l 882 0 l 543 0 l 271 339 l 271 0 l 0 0 l 0 949 l 271 949 l 271 610 z "},"L":{"ha":814,"x_min":0,"x_max":746,"o":"m 0 949 l 271 949 l 271 271 l 746 271 l 746 0 l 0 0 l 0 949 z "},"M":{"ha":1153,"x_min":0,"x_max":1085,"o":"m 1085 949 l 1085 0 l 814 0 l 814 452 l 678 0 l 407 0 l 271 450 l 271 0 l 0 0 l 0 949 l 339 949 l 543 407 l 746 949 l 1085 949 z "},"N":{"ha":949,"x_min":0,"x_max":882,"o":"m 271 475 l 271 0 l 0 0 l 0 949 l 271 949 l 610 475 l 610 949 l 882 949 l 882 0 l 610 0 l 271 475 z "},"O":{"ha":1017,"x_min":0,"x_max":949,"o":"m 475 0 q 139 139 278 0 q 0 475 0 278 q 139 810 0 671 q 475 949 278 949 q 810 810 671 949 q 949 475 949 671 q 810 139 949 278 q 475 0 671 0 m 475 271 q 618 331 559 271 q 678 475 678 391 q 618 618 678 559 q 475 678 559 678 q 331 618 391 678 q 271 475 271 559 q 331 331 271 391 q 475 271 391 271 z "},"P":{"ha":949,"x_min":0,"x_max":882,"o":"m 271 271 l 271 0 l 0 0 l 0 949 l 543 949 q 882 610 882 949 q 543 271 882 271 l 271 271 m 271 678 l 271 543 l 543 543 q 610 610 610 543 q 543 678 610 678 l 271 678 z "},"Q":{"ha":1085,"x_min":0,"x_max":1017,"o":"m 618 331 q 648 361 618 331 q 678 475 678 391 q 618 618 678 559 q 475 678 559 678 q 331 618 391 678 q 271 475 271 559 q 331 331 271 391 q 475 271 391 271 q 618 331 559 271 m 918 302 l 1017 203 l 814 0 l 736 77 q 475 0 622 0 q 139 139 278 0 q 0 475 0 278 q 139 810 0 671 q 475 949 278 949 q 810 810 671 949 q 949 475 949 671 q 918 302 949 382 z "},"R":{"ha":949,"x_min":0,"x_max":882,"o":"m 271 678 l 271 543 l 543 543 q 610 610 610 543 q 543 678 610 678 l 271 678 m 271 271 l 271 0 l 0 0 l 0 949 l 543 949 q 882 610 882 949 q 610 271 882 271 l 882 0 l 543 0 l 271 271 z "},"S":{"ha":949,"x_min":0,"x_max":882,"o":"m 339 339 q 0 647 0 339 q 339 949 0 949 l 882 949 l 882 678 l 339 678 q 271 647 271 678 q 339 610 271 610 l 543 610 q 882 308 882 610 q 543 0 882 0 l 0 0 l 0 271 l 543 271 q 610 308 610 271 q 543 339 610 339 l 339 339 z "},"T":{"ha":949,"x_min":0,"x_max":882,"o":"m 574 678 l 574 0 l 302 0 l 302 678 l 0 678 l 0 949 l 882 949 l 882 678 l 574 678 z "},"U":{"ha":882,"x_min":0,"x_max":814,"o":"m 0 475 l 0 949 l 271 949 l 271 475 q 407 271 271 271 q 543 475 543 271 l 543 949 l 814 949 l 814 475 q 407 0 814 0 q 0 475 0 0 z "},"V":{"ha":1017,"x_min":0,"x_max":949,"o":"m 339 0 l 0 949 l 271 949 l 475 407 l 678 949 l 949 949 l 610 0 l 339 0 z "},"W":{"ha":1560,"x_min":0,"x_max":1492,"o":"m 746 475 l 610 0 l 339 0 l 0 949 l 271 949 l 475 407 l 610 949 l 882 949 l 1017 407 l 1221 949 l 1492 949 l 1153 0 l 882 0 l 746 475 z "},"X":{"ha":1017,"x_min":0,"x_max":949,"o":"m 323 475 l 0 949 l 307 949 l 473 703 l 642 949 l 949 949 l 631 473 l 949 0 l 648 0 l 471 245 l 310 0 l 0 0 l 323 475 z "},"Y":{"ha":1017,"x_min":0,"x_max":949,"o":"m 339 407 l 0 949 l 290 949 l 475 678 l 660 949 l 949 949 l 610 407 l 610 0 l 339 0 l 339 407 z "},"Z":{"ha":882,"x_min":0,"x_max":814,"o":"m 814 949 l 814 678 l 357 271 l 814 271 l 814 0 l 0 0 l 0 271 l 456 678 l 0 678 l 0 949 l 814 949 z "},"[":{"ha":678,"x_min":68,"x_max":543,"o":"m 543 1085 l 543 814 l 339 814 l 339 136 l 543 136 l 543 -136 l 68 -136 l 68 1085 l 543 1085 z "},"\\":{"ha":1017,"x_min":27,"x_max":919,"o":"m 302 1085 l 919 -136 l 635 -136 l 27 1085 l 302 1085 z "},"]":{"ha":678,"x_min":136,"x_max":610,"o":"m 610 1085 l 610 -136 l 136 -136 l 136 136 l 339 136 l 339 814 l 136 814 l 136 1085 l 610 1085 z "},"^":{"ha":746,"x_min":0,"x_max":678,"o":"m 543 949 l 678 610 l 407 610 l 339 780 l 271 610 l 0 610 l 136 949 l 543 949 z "},"_":{"ha":949,"x_min":68,"x_max":882,"o":"m 882 271 l 882 0 l 68 0 l 68 271 l 882 271 z "},"`":{"ha":475,"x_min":0,"x_max":407,"o":"m 0 1356 l 271 1356 l 407 1017 l 136 1017 l 0 1356 z "},"a":{"ha":1017,"x_min":0,"x_max":949,"o":"m 319 136 l 271 0 l 0 0 l 339 949 l 610 949 l 949 0 l 678 0 l 630 136 l 319 136 m 566 407 l 475 678 l 385 407 l 566 407 z "},"b":{"ha":949,"x_min":0,"x_max":882,"o":"m 271 573 l 482 573 q 610 642 610 573 q 475 722 610 720 l 271 722 l 271 573 m 271 237 l 482 237 q 610 303 610 237 q 475 377 610 375 l 271 377 l 271 237 m 0 0 l 0 949 l 475 949 q 882 644 882 949 q 746 475 882 475 q 882 301 882 475 q 475 0 882 0 l 0 0 z "},"c":{"ha":1017,"x_min":0,"x_max":916,"o":"m 810 139 q 475 0 671 0 q 139 139 278 0 q 0 475 0 278 q 139 810 0 671 q 475 949 278 949 q 810 810 671 949 q 916 656 880 741 l 668 540 q 618 618 654 583 q 475 678 559 678 q 331 618 391 678 q 271 475 271 559 q 331 331 271 391 q 475 271 391 271 q 618 331 559 271 q 666 404 651 363 l 915 294 q 810 139 880 209 z "},"d":{"ha":949,"x_min":0,"x_max":882,"o":"m 0 0 l 0 949 l 475 949 q 882 475 882 949 q 475 0 882 0 l 0 0 m 271 678 l 271 271 l 475 271 q 610 475 610 271 q 475 678 610 678 l 271 678 z "},"e":{"ha":882,"x_min":0,"x_max":814,"o":"m 814 949 l 814 678 l 271 678 l 271 610 l 678 610 l 678 339 l 271 339 l 271 271 l 814 271 l 814 0 l 0 0 l 0 949 l 814 949 z "},"f":{"ha":882,"x_min":0,"x_max":814,"o":"m 814 949 l 814 678 l 271 678 l 271 610 l 814 610 l 814 339 l 271 339 l 271 0 l 0 0 l 0 949 l 814 949 z "},"g":{"ha":1017,"x_min":0,"x_max":949,"o":"m 626 339 l 475 339 l 475 610 l 882 610 l 930 610 q 949 475 949 545 q 810 139 949 278 q 475 0 671 0 q 139 139 278 0 q 0 475 0 278 q 139 810 0 671 q 475 949 278 949 q 810 810 671 949 q 836 784 823 798 l 593 640 q 475 678 542 678 q 331 618 391 678 q 271 475 271 559 q 331 331 271 391 q 475 271 391 271 q 618 331 559 271 q 626 339 623 335 z "},"h":{"ha":949,"x_min":0,"x_max":882,"o":"m 0 949 l 271 949 l 271 610 l 610 610 l 610 949 l 882 949 l 882 0 l 610 0 l 610 339 l 271 339 l 271 0 l 0 0 l 0 949 z "},"i":{"ha":339,"x_min":0,"x_max":271,"o":"m 271 949 l 271 0 l 0 0 l 0 949 l 271 949 z "},"j":{"ha":882,"x_min":2,"x_max":814,"o":"m 543 949 l 814 949 l 814 475 q 407 0 814 0 q 2 406 31 0 l 276 406 q 407 271 296 271 q 543 475 543 271 l 543 949 z "},"k":{"ha":949,"x_min":0,"x_max":882,"o":"m 271 610 l 543 949 l 882 949 l 492 475 l 882 0 l 543 0 l 271 339 l 271 0 l 0 0 l 0 949 l 271 949 l 271 610 z "},"l":{"ha":814,"x_min":0,"x_max":746,"o":"m 0 949 l 271 949 l 271 271 l 746 271 l 746 0 l 0 0 l 0 949 z "},"m":{"ha":1153,"x_min":0,"x_max":1085,"o":"m 1085 949 l 1085 0 l 814 0 l 814 452 l 678 0 l 407 0 l 271 450 l 271 0 l 0 0 l 0 949 l 339 949 l 543 407 l 746 949 l 1085 949 z "},"n":{"ha":949,"x_min":0,"x_max":882,"o":"m 271 475 l 271 0 l 0 0 l 0 949 l 271 949 l 610 475 l 610 949 l 882 949 l 882 0 l 610 0 l 271 475 z "},"o":{"ha":1017,"x_min":0,"x_max":949,"o":"m 475 0 q 139 139 278 0 q 0 475 0 278 q 139 810 0 671 q 475 949 278 949 q 810 810 671 949 q 949 475 949 671 q 810 139 949 278 q 475 0 671 0 m 475 271 q 618 331 559 271 q 678 475 678 391 q 618 618 678 559 q 475 678 559 678 q 331 618 391 678 q 271 475 271 559 q 331 331 271 391 q 475 271 391 271 z "},"p":{"ha":949,"x_min":0,"x_max":882,"o":"m 271 271 l 271 0 l 0 0 l 0 949 l 543 949 q 882 610 882 949 q 543 271 882 271 l 271 271 m 271 678 l 271 543 l 543 543 q 610 610 610 543 q 543 678 610 678 l 271 678 z "},"q":{"ha":1017,"x_min":0,"x_max":1017,"o":"m 618 331 q 648 361 618 331 q 678 475 678 391 q 618 618 678 559 q 475 678 559 678 q 331 618 391 678 q 271 475 271 559 q 331 331 271 391 q 475 271 391 271 q 618 331 559 271 m 918 302 l 1017 203 l 814 0 l 736 77 q 475 0 622 0 q 139 139 278 0 q 0 475 0 278 q 139 810 0 671 q 475 949 278 949 q 810 810 671 949 q 949 475 949 671 q 918 302 949 382 z "},"r":{"ha":949,"x_min":0,"x_max":882,"o":"m 271 678 l 271 543 l 543 543 q 610 610 610 543 q 543 678 610 678 l 271 678 m 271 271 l 271 0 l 0 0 l 0 949 l 543 949 q 882 610 882 949 q 610 271 882 271 l 882 0 l 543 0 l 271 271 z "},"s":{"ha":949,"x_min":0,"x_max":882,"o":"m 339 339 q 0 647 0 339 q 339 949 0 949 l 882 949 l 882 678 l 339 678 q 271 647 271 678 q 339 610 271 610 l 543 610 q 882 308 882 610 q 543 0 882 0 l 0 0 l 0 271 l 543 271 q 610 308 610 271 q 543 339 610 339 l 339 339 z "},"t":{"ha":949,"x_min":0,"x_max":882,"o":"m 574 678 l 574 0 l 302 0 l 302 678 l 0 678 l 0 949 l 882 949 l 882 678 l 574 678 z "},"u":{"ha":882,"x_min":0,"x_max":814,"o":"m 0 475 l 0 949 l 271 949 l 271 475 q 407 271 271 271 q 543 475 543 271 l 543 949 l 814 949 l 814 475 q 407 0 814 0 q 0 475 0 0 z "},"v":{"ha":1017,"x_min":0,"x_max":949,"o":"m 339 0 l 0 949 l 271 949 l 475 407 l 678 949 l 949 949 l 610 0 l 339 0 z "},"w":{"ha":1560,"x_min":0,"x_max":1492,"o":"m 746 475 l 610 0 l 339 0 l 0 949 l 271 949 l 475 407 l 610 949 l 882 949 l 1017 407 l 1221 949 l 1492 949 l 1153 0 l 882 0 l 746 475 z "},"x":{"ha":1017,"x_min":0,"x_max":949,"o":"m 323 475 l 0 949 l 307 949 l 473 703 l 642 949 l 949 949 l 631 473 l 949 0 l 648 0 l 471 245 l 310 0 l 0 0 l 323 475 z "},"y":{"ha":1017,"x_min":0,"x_max":949,"o":"m 339 407 l 0 949 l 290 949 l 475 678 l 660 949 l 949 949 l 610 407 l 610 7 l 339 7 l 339 407 z "},"z":{"ha":882,"x_min":0,"x_max":814,"o":"m 814 949 l 814 678 l 357 271 l 814 271 l 814 0 l 0 0 l 0 271 l 456 678 l 0 678 l 0 949 l 814 949 z "},"{":{"ha":814,"x_min":68,"x_max":678,"o":"m 203 610 q 678 1085 203 1085 l 678 814 q 475 610 475 814 l 475 339 q 678 136 475 136 l 678 -136 q 203 339 203 -136 l 68 339 l 68 610 l 203 610 z "},"|":{"ha":407,"x_min":68,"x_max":339,"o":"m 339 1085 l 339 -136 l 68 -136 l 68 1085 l 339 1085 z "},"}":{"ha":814,"x_min":136,"x_max":746,"o":"m 610 339 q 136 -136 610 -136 l 136 136 q 339 339 339 136 l 339 610 q 136 814 339 814 l 136 1085 q 610 610 610 1085 l 746 610 l 746 339 l 610 339 z "},"~":{"ha":814,"x_min":68,"x_max":746,"o":"m 68 294 l 68 565 q 254 599 170 599 q 407 565 339 599 q 505 543 452 543 q 746 633 610 543 l 746 361 q 505 271 610 271 q 407 294 452 271 q 254 328 339 328 q 68 294 170 328 z "},"¡":{"ha":407,"x_min":68,"x_max":339,"o":"m 339 610 l 339 0 l 68 0 l 68 610 l 339 610 m 203 949 q 299 910 260 949 q 339 814 339 870 q 299 718 339 758 q 203 678 260 678 q 107 718 147 678 q 68 814 68 758 q 107 910 68 870 q 203 949 147 949 z "},"£":{"ha":1085,"x_min":68,"x_max":1017,"o":"m 213 610 q 610 949 267 949 q 1009 610 954 949 l 723 610 q 610 678 688 678 q 499 610 532 678 l 678 610 l 678 339 l 475 339 l 475 270 l 1017 270 l 1017 0 l 203 0 l 203 339 l 68 339 l 68 610 l 213 610 z "},"¥":{"ha":856,"x_min":0,"x_max":949,"o":"m 610 136 l 610 0 l 339 0 l 339 136 l 136 136 l 136 407 l 339 407 l 0 949 l 290 949 l 475 678 l 660 949 l 949 949 l 610 407 l 814 407 l 814 136 l 610 136 z "},"¨":{"ha":746,"x_min":68,"x_max":678,"o":"m 203 1017 q 107 1057 147 1017 q 68 1153 68 1097 q 107 1249 68 1209 q 203 1289 147 1289 q 299 1249 260 1289 q 339 1153 339 1209 q 299 1057 339 1097 q 203 1017 260 1017 m 543 1017 q 447 1057 486 1017 q 407 1153 407 1097 q 447 1249 407 1209 q 543 1289 486 1289 q 638 1249 599 1289 q 678 1153 678 1209 q 638 1057 678 1097 q 543 1017 599 1017 z "},"°":{"ha":407,"x_min":68,"x_max":339,"o":"m 203 1017 q 107 1060 147 1017 q 68 1162 68 1103 q 107 1265 68 1223 q 203 1308 147 1308 q 299 1265 260 1308 q 339 1162 339 1223 q 299 1060 339 1103 q 203 1017 260 1017 z "},"´":{"ha":543,"x_min":68,"x_max":475,"o":"m 339 1017 l 68 1017 l 203 1356 l 475 1356 l 339 1017 z "},"µ":{"ha":800,"x_min":0,"x_max":814,"o":"m 271 475 q 407 271 271 271 q 543 475 543 271 l 543 949 l 814 949 l 814 475 q 407 0 814 0 q 271 16 332 0 l 271 -136 l 0 -136 l 0 949 l 271 949 l 271 475 z "},"¸":{"ha":949,"x_min":339,"x_max":629,"o":"m 519 -71 q 629 -169 629 -79 q 495 -271 629 -271 l 339 -271 l 339 -182 l 495 -182 q 517 -169 517 -182 q 495 -160 517 -160 l 429 -160 l 429 -99 l 427 -99 l 427 18 l 517 18 l 519 -71 z "},"¿":{"ha":1017,"x_min":68,"x_max":949,"o":"m 543 610 q 949 311 949 610 q 543 0 949 0 l 68 0 l 68 271 l 543 271 q 610 311 610 271 q 543 339 610 339 l 339 339 l 339 610 l 543 610 m 475 949 q 571 910 531 949 q 610 814 610 870 q 571 718 610 758 q 475 678 531 678 q 379 718 418 678 q 339 814 339 758 q 379 910 339 870 q 475 949 418 949 z "},"À":{"ha":1017,"x_min":0,"x_max":949,"o":"m 319 136 l 271 0 l 0 0 l 339 949 l 610 949 l 949 0 l 678 0 l 630 136 l 319 136 m 566 407 l 475 678 l 385 407 l 566 407 m 242 1356 l 513 1356 l 649 1017 l 378 1017 l 242 1356 z "},"Á":{"ha":1017,"x_min":0,"x_max":949,"o":"m 319 136 l 271 0 l 0 0 l 339 949 l 610 949 l 949 0 l 678 0 l 630 136 l 319 136 m 566 407 l 475 678 l 385 407 l 566 407 m 572 1017 l 300 1017 l 436 1356 l 707 1356 l 572 1017 z "},"Â":{"ha":1017,"x_min":0,"x_max":949,"o":"m 319 136 l 271 0 l 0 0 l 339 949 l 610 949 l 949 0 l 678 0 l 630 136 l 319 136 m 566 407 l 475 678 l 385 407 l 566 407 m 678 1356 l 814 1017 l 543 1017 l 475 1187 l 407 1017 l 136 1017 l 271 1356 l 678 1356 z "},"Ã":{"ha":1017,"x_min":0,"x_max":949,"o":"m 319 136 l 271 0 l 0 0 l 339 949 l 610 949 l 949 0 l 678 0 l 630 136 l 319 136 m 566 407 l 475 678 l 385 407 l 566 407 m 136 1040 l 136 1311 q 322 1345 237 1345 q 475 1311 407 1345 q 573 1289 520 1289 q 814 1379 678 1289 l 814 1107 q 573 1017 678 1017 q 475 1040 520 1017 q 322 1074 407 1074 q 136 1040 237 1074 z "},"Ä":{"ha":1017,"x_min":0,"x_max":949,"o":"m 319 136 l 271 0 l 0 0 l 339 949 l 610 949 l 949 0 l 678 0 l 630 136 l 319 136 m 566 407 l 475 678 l 385 407 l 566 407 m 305 1017 q 209 1057 249 1017 q 170 1153 170 1097 q 209 1249 170 1209 q 305 1289 249 1289 q 401 1249 361 1289 q 441 1153 441 1209 q 401 1057 441 1097 q 305 1017 361 1017 m 644 1017 q 548 1057 588 1017 q 509 1153 509 1097 q 548 1249 509 1209 q 644 1289 588 1289 q 740 1249 701 1289 q 780 1153 780 1209 q 740 1057 780 1097 q 644 1017 701 1017 z "},"Å":{"ha":1017,"x_min":0,"x_max":949,"o":"m 319 136 l 271 0 l 0 0 l 339 949 l 610 949 l 949 0 l 678 0 l 630 136 l 319 136 m 566 407 l 475 678 l 385 407 l 566 407 m 475 1055 q 548 1088 518 1055 q 578 1166 578 1120 q 548 1244 578 1212 q 475 1277 518 1277 q 402 1244 432 1277 q 372 1166 372 1212 q 402 1088 372 1120 q 475 1055 432 1055 m 475 957 q 331 1021 390 957 q 271 1175 271 1085 q 331 1329 271 1265 q 475 1393 390 1393 q 618 1329 559 1393 q 678 1175 678 1265 q 618 1021 678 1085 q 475 957 559 957 z "},"Æ":{"ha":1560,"x_min":0,"x_max":1492,"o":"m 566 407 l 475 678 l 385 407 l 566 407 m 678 0 l 630 136 l 319 136 l 271 0 l 0 0 l 339 949 l 610 949 l 678 760 l 678 949 l 1492 949 l 1492 678 l 949 678 l 949 610 l 1356 610 l 1356 339 l 949 339 l 949 271 l 1492 271 l 1492 0 l 678 0 z "},"Ç":{"ha":949,"x_min":0,"x_max":916,"o":"m 427 2 q 139 139 261 17 q 0 475 0 278 q 139 810 0 671 q 475 949 278 949 q 810 810 671 949 q 916 656 880 741 l 668 540 q 618 618 654 583 q 475 678 559 678 q 331 618 391 678 q 271 475 271 559 q 331 331 271 391 q 475 271 391 271 q 618 331 559 271 q 666 404 651 363 l 915 294 q 810 139 880 209 q 517 1 687 16 l 517 -67 q 629 -169 629 -79 q 495 -271 629 -271 l 339 -271 l 339 -182 l 495 -182 q 517 -169 517 -182 q 428 -160 517 -160 l 427 -99 l 427 2 z "},"È":{"ha":882,"x_min":0,"x_max":814,"o":"m 814 949 l 814 678 l 271 678 l 271 610 l 678 610 l 678 339 l 271 339 l 271 271 l 814 271 l 814 0 l 0 0 l 0 949 l 814 949 m 182 1356 l 454 1356 l 589 1017 l 318 1017 l 182 1356 z "},"É":{"ha":882,"x_min":0,"x_max":814,"o":"m 814 949 l 814 678 l 271 678 l 271 610 l 678 610 l 678 339 l 271 339 l 271 271 l 814 271 l 814 0 l 0 0 l 0 949 l 814 949 m 507 1017 l 235 1017 l 371 1356 l 642 1356 l 507 1017 z "},"Ê":{"ha":882,"x_min":0,"x_max":814,"o":"m 814 949 l 814 678 l 271 678 l 271 610 l 678 610 l 678 339 l 271 339 l 271 271 l 814 271 l 814 0 l 0 0 l 0 949 l 814 949 m 610 1356 l 746 1017 l 475 1017 l 407 1187 l 339 1017 l 68 1017 l 203 1356 l 610 1356 z "},"Ë":{"ha":882,"x_min":0,"x_max":814,"o":"m 814 949 l 814 678 l 271 678 l 271 610 l 678 610 l 678 339 l 271 339 l 271 271 l 814 271 l 814 0 l 0 0 l 0 949 l 814 949 m 238 1017 q 142 1057 182 1017 q 102 1153 102 1097 q 142 1249 102 1209 q 238 1289 182 1289 q 334 1249 294 1289 q 374 1153 374 1209 q 334 1057 374 1097 q 238 1017 294 1017 m 577 1017 q 481 1057 521 1017 q 441 1153 441 1097 q 481 1249 441 1209 q 577 1289 521 1289 q 673 1249 633 1289 q 713 1153 713 1209 q 673 1057 713 1097 q 577 1017 633 1017 z "},"Ì":{"ha":339,"x_min":-68,"x_max":339,"o":"m 271 949 l 271 0 l 0 0 l 0 949 l 271 949 m -68 1356 l 203 1356 l 339 1017 l 68 1017 l -68 1356 z "},"Í":{"ha":339,"x_min":-39,"x_max":368,"o":"m 271 949 l 271 0 l 0 0 l 0 949 l 271 949 m 232 1017 l -39 1017 l 96 1356 l 368 1356 l 232 1017 z "},"Î":{"ha":339,"x_min":-203,"x_max":475,"o":"m 271 949 l 271 0 l 0 0 l 0 949 l 271 949 m 339 1356 l 475 1017 l 203 1017 l 136 1187 l 68 1017 l -203 1017 l -68 1356 l 339 1356 z "},"Ï":{"ha":339,"x_min":-168,"x_max":442,"o":"m 271 949 l 271 0 l 0 0 l 0 949 l 271 949 m -33 1017 q -129 1057 -89 1017 q -168 1153 -168 1097 q -129 1249 -168 1209 q -33 1289 -89 1289 q 63 1249 24 1289 q 103 1153 103 1209 q 63 1057 103 1097 q -33 1017 24 1017 m 307 1017 q 211 1057 250 1017 q 171 1153 171 1097 q 211 1249 171 1209 q 307 1289 250 1289 q 402 1249 363 1289 q 442 1153 442 1209 q 402 1057 442 1097 q 307 1017 363 1017 z "},"Ð":{"ha":949,"x_min":-203,"x_max":882,"o":"m 271 339 l 271 271 l 475 271 q 610 475 610 271 q 475 678 610 678 l 271 678 l 271 610 l 475 610 l 475 339 l 271 339 m 0 610 l 0 949 l 475 949 q 882 475 882 949 q 475 0 882 0 l 0 0 l 0 339 l -203 339 l -203 610 l 0 610 z "},"Ñ":{"ha":949,"x_min":0,"x_max":882,"o":"m 271 475 l 271 0 l 0 0 l 0 949 l 271 949 l 610 475 l 610 949 l 882 949 l 882 0 l 610 0 l 271 475 m 99 1040 l 99 1311 q 286 1345 201 1345 q 438 1311 370 1345 q 536 1289 484 1289 q 777 1379 642 1289 l 777 1107 q 536 1017 642 1017 q 438 1040 484 1017 q 286 1074 370 1074 q 99 1040 201 1074 z "},"Ò":{"ha":1017,"x_min":0,"x_max":949,"o":"m 475 0 q 139 139 278 0 q 0 475 0 278 q 139 810 0 671 q 475 949 278 949 q 810 810 671 949 q 949 475 949 671 q 810 139 949 278 q 475 0 671 0 m 475 271 q 618 331 559 271 q 678 475 678 391 q 618 618 678 559 q 475 678 559 678 q 331 618 391 678 q 271 475 271 559 q 331 331 271 391 q 475 271 391 271 m 242 1356 l 513 1356 l 649 1017 l 378 1017 l 242 1356 z "},"Ó":{"ha":1017,"x_min":0,"x_max":949,"o":"m 475 0 q 139 139 278 0 q 0 475 0 278 q 139 810 0 671 q 475 949 278 949 q 810 810 671 949 q 949 475 949 671 q 810 139 949 278 q 475 0 671 0 m 475 271 q 618 331 559 271 q 678 475 678 391 q 618 618 678 559 q 475 678 559 678 q 331 618 391 678 q 271 475 271 559 q 331 331 271 391 q 475 271 391 271 m 572 1017 l 300 1017 l 436 1356 l 707 1356 l 572 1017 z "},"Ô":{"ha":1017,"x_min":0,"x_max":949,"o":"m 475 0 q 139 139 278 0 q 0 475 0 278 q 139 810 0 671 q 475 949 278 949 q 810 810 671 949 q 949 475 949 671 q 810 139 949 278 q 475 0 671 0 m 475 271 q 618 331 559 271 q 678 475 678 391 q 618 618 678 559 q 475 678 559 678 q 331 618 391 678 q 271 475 271 559 q 331 331 271 391 q 475 271 391 271 m 678 1356 l 814 1017 l 543 1017 l 475 1187 l 407 1017 l 136 1017 l 271 1356 l 678 1356 z "},"Õ":{"ha":1017,"x_min":0,"x_max":949,"o":"m 475 0 q 139 139 278 0 q 0 475 0 278 q 139 810 0 671 q 475 949 278 949 q 810 810 671 949 q 949 475 949 671 q 810 139 949 278 q 475 0 671 0 m 475 271 q 618 331 559 271 q 678 475 678 391 q 618 618 678 559 q 475 678 559 678 q 331 618 391 678 q 271 475 271 559 q 331 331 271 391 q 475 271 391 271 m 136 1040 l 136 1311 q 322 1345 237 1345 q 475 1311 407 1345 q 573 1289 520 1289 q 814 1379 678 1289 l 814 1107 q 573 1017 678 1017 q 475 1040 520 1017 q 322 1074 407 1074 q 136 1040 237 1074 z "},"Ö":{"ha":1017,"x_min":0,"x_max":949,"o":"m 475 0 q 139 139 278 0 q 0 475 0 278 q 139 810 0 671 q 475 949 278 949 q 810 810 671 949 q 949 475 949 671 q 810 139 949 278 q 475 0 671 0 m 475 271 q 618 331 559 271 q 678 475 678 391 q 618 618 678 559 q 475 678 559 678 q 331 618 391 678 q 271 475 271 559 q 331 331 271 391 q 475 271 391 271 m 305 1017 q 209 1057 249 1017 q 170 1153 170 1097 q 209 1249 170 1209 q 305 1289 249 1289 q 401 1249 361 1289 q 441 1153 441 1209 q 401 1057 441 1097 q 305 1017 361 1017 m 644 1017 q 548 1057 588 1017 q 509 1153 509 1097 q 548 1249 509 1209 q 644 1289 588 1289 q 740 1249 701 1289 q 780 1153 780 1209 q 740 1057 780 1097 q 644 1017 701 1017 z "},"×":{"ha":882,"x_min":56,"x_max":814,"o":"m 427 245 l 363 136 l 56 136 l 279 475 l 57 814 l 363 814 l 429 703 l 504 813 l 814 814 l 587 473 l 814 136 l 498 136 l 427 245 z "},"Ø":{"ha":1017,"x_min":0,"x_max":949,"o":"m 437 675 q 331 618 376 664 q 271 475 271 559 q 291 387 271 427 l 437 675 m 515 275 q 618 331 574 286 q 678 475 678 391 q 659 563 678 523 l 515 275 m 791 829 q 810 810 801 820 q 949 475 949 671 q 810 139 949 278 q 475 0 671 0 q 382 8 427 0 l 311 -136 l 27 -136 l 157 122 q 139 139 148 130 q 0 475 0 278 q 139 810 0 671 q 475 949 278 949 q 570 941 524 949 l 644 1085 l 919 1085 l 791 829 z "},"Ù":{"ha":882,"x_min":0,"x_max":814,"o":"m 0 475 l 0 949 l 271 949 l 271 475 q 407 271 271 271 q 543 475 543 271 l 543 949 l 814 949 l 814 475 q 407 0 814 0 q 0 475 0 0 m 178 1356 l 449 1356 l 585 1017 l 313 1017 l 178 1356 z "},"Ú":{"ha":882,"x_min":0,"x_max":814,"o":"m 0 475 l 0 949 l 271 949 l 271 475 q 407 271 271 271 q 543 475 543 271 l 543 949 l 814 949 l 814 475 q 407 0 814 0 q 0 475 0 0 m 505 1017 l 234 1017 l 370 1356 l 641 1356 l 505 1017 z "},"Û":{"ha":882,"x_min":0,"x_max":814,"o":"m 0 475 l 0 949 l 271 949 l 271 475 q 407 271 271 271 q 543 475 543 271 l 543 949 l 814 949 l 814 475 q 407 0 814 0 q 0 475 0 0 m 610 1356 l 746 1017 l 475 1017 l 407 1187 l 339 1017 l 68 1017 l 203 1356 l 610 1356 z "},"Ü":{"ha":882,"x_min":0,"x_max":814,"o":"m 0 475 l 0 949 l 271 949 l 271 475 q 407 271 271 271 q 543 475 543 271 l 543 949 l 814 949 l 814 475 q 407 0 814 0 q 0 475 0 0 m 236 1017 q 140 1057 180 1017 q 100 1153 100 1097 q 140 1249 100 1209 q 236 1289 180 1289 q 332 1249 292 1289 q 372 1153 372 1209 q 332 1057 372 1097 q 236 1017 292 1017 m 575 1017 q 479 1057 519 1017 q 439 1153 439 1097 q 479 1249 439 1209 q 575 1289 519 1289 q 671 1249 631 1289 q 711 1153 711 1209 q 671 1057 711 1097 q 575 1017 631 1017 z "},"Ý":{"ha":1017,"x_min":0,"x_max":949,"o":"m 572 1017 l 300 1017 l 436 1356 l 707 1356 l 572 1017 m 339 407 l 0 949 l 290 949 l 475 678 l 660 949 l 949 949 l 610 407 l 610 0 l 339 0 l 339 407 z "},"Þ":{"ha":949,"x_min":0,"x_max":882,"o":"m 271 543 l 271 407 l 475 407 q 610 475 610 407 q 475 543 610 543 l 271 543 m 0 949 l 271 949 l 271 814 l 475 814 q 882 475 882 814 q 475 136 882 136 l 271 136 l 271 0 l 0 0 l 0 949 z "},"ß":{"ha":848,"x_min":0,"x_max":882,"o":"m 475 237 l 482 237 q 610 303 610 237 q 475 379 610 374 l 475 575 l 487 575 q 610 642 610 575 q 475 722 610 720 l 271 722 l 271 0 l 0 0 l 0 949 l 475 949 q 882 644 882 949 q 746 475 882 475 q 882 301 882 475 q 475 0 882 0 l 474 0 l 475 237 z "},"à":{"ha":1017,"x_min":0,"x_max":949,"o":"m 319 136 l 271 0 l 0 0 l 339 949 l 610 949 l 949 0 l 678 0 l 630 136 l 319 136 m 566 407 l 475 678 l 385 407 l 566 407 m 242 1356 l 513 1356 l 649 1017 l 378 1017 l 242 1356 z "},"á":{"ha":1017,"x_min":0,"x_max":949,"o":"m 319 136 l 271 0 l 0 0 l 339 949 l 610 949 l 949 0 l 678 0 l 630 136 l 319 136 m 566 407 l 475 678 l 385 407 l 566 407 m 572 1017 l 300 1017 l 436 1356 l 707 1356 l 572 1017 z "},"â":{"ha":1017,"x_min":0,"x_max":949,"o":"m 319 136 l 271 0 l 0 0 l 339 949 l 610 949 l 949 0 l 678 0 l 630 136 l 319 136 m 566 407 l 475 678 l 385 407 l 566 407 m 678 1356 l 814 1017 l 543 1017 l 475 1187 l 407 1017 l 136 1017 l 271 1356 l 678 1356 z "},"ã":{"ha":1017,"x_min":0,"x_max":949,"o":"m 319 136 l 271 0 l 0 0 l 339 949 l 610 949 l 949 0 l 678 0 l 630 136 l 319 136 m 566 407 l 475 678 l 385 407 l 566 407 m 136 1040 l 136 1311 q 322 1345 237 1345 q 475 1311 407 1345 q 573 1289 520 1289 q 814 1379 678 1289 l 814 1107 q 573 1017 678 1017 q 475 1040 520 1017 q 322 1074 407 1074 q 136 1040 237 1074 z "},"ä":{"ha":1017,"x_min":0,"x_max":949,"o":"m 319 136 l 271 0 l 0 0 l 339 949 l 610 949 l 949 0 l 678 0 l 630 136 l 319 136 m 566 407 l 475 678 l 385 407 l 566 407 m 305 1017 q 209 1057 249 1017 q 170 1153 170 1097 q 209 1249 170 1209 q 305 1289 249 1289 q 401 1249 361 1289 q 441 1153 441 1209 q 401 1057 441 1097 q 305 1017 361 1017 m 644 1017 q 548 1057 588 1017 q 509 1153 509 1097 q 548 1249 509 1209 q 644 1289 588 1289 q 740 1249 701 1289 q 780 1153 780 1209 q 740 1057 780 1097 q 644 1017 701 1017 z "},"å":{"ha":1017,"x_min":0,"x_max":949,"o":"m 319 136 l 271 0 l 0 0 l 339 949 l 610 949 l 949 0 l 678 0 l 630 136 l 319 136 m 566 407 l 475 678 l 385 407 l 566 407 m 475 1055 q 548 1088 518 1055 q 578 1166 578 1120 q 548 1244 578 1212 q 475 1277 518 1277 q 402 1244 432 1277 q 372 1166 372 1212 q 402 1088 372 1120 q 475 1055 432 1055 m 475 957 q 331 1021 390 957 q 271 1175 271 1085 q 331 1329 271 1265 q 475 1393 390 1393 q 618 1329 559 1393 q 678 1175 678 1265 q 618 1021 678 1085 q 475 957 559 957 z "},"æ":{"ha":1560,"x_min":0,"x_max":1492,"o":"m 678 0 l 630 136 l 319 136 l 271 0 l 0 0 l 339 949 l 610 949 l 678 760 l 678 949 l 1492 949 l 1492 678 l 949 678 l 949 610 l 1356 610 l 1356 339 l 949 339 l 949 271 l 1492 271 l 1492 0 l 678 0 m 566 407 l 475 678 l 385 407 l 566 407 z "},"ç":{"ha":1017,"x_min":0,"x_max":916,"o":"m 427 2 q 139 139 261 17 q 0 475 0 278 q 139 810 0 671 q 475 949 278 949 q 810 810 671 949 q 916 656 880 741 l 668 540 q 618 618 654 583 q 475 678 559 678 q 331 618 391 678 q 271 475 271 559 q 331 331 271 391 q 475 271 391 271 q 618 331 559 271 q 666 404 651 363 l 915 294 q 810 139 880 209 q 517 1 687 16 l 517 -67 q 629 -169 629 -79 q 495 -271 629 -271 l 339 -271 l 339 -182 l 495 -182 q 517 -169 517 -182 q 428 -160 517 -160 l 427 -99 l 427 2 z "},"è":{"ha":882,"x_min":0,"x_max":814,"o":"m 814 949 l 814 678 l 271 678 l 271 610 l 678 610 l 678 339 l 271 339 l 271 271 l 814 271 l 814 0 l 0 0 l 0 949 l 814 949 m 182 1356 l 454 1356 l 589 1017 l 318 1017 l 182 1356 z "},"é":{"ha":882,"x_min":0,"x_max":814,"o":"m 814 949 l 814 678 l 271 678 l 271 610 l 678 610 l 678 339 l 271 339 l 271 271 l 814 271 l 814 0 l 0 0 l 0 949 l 814 949 m 507 1017 l 235 1017 l 371 1356 l 642 1356 l 507 1017 z "},"ê":{"ha":882,"x_min":0,"x_max":814,"o":"m 814 949 l 814 678 l 271 678 l 271 610 l 678 610 l 678 339 l 271 339 l 271 271 l 814 271 l 814 0 l 0 0 l 0 949 l 814 949 m 610 1356 l 746 1017 l 475 1017 l 407 1187 l 339 1017 l 68 1017 l 203 1356 l 610 1356 z "},"ë":{"ha":882,"x_min":0,"x_max":814,"o":"m 814 949 l 814 678 l 271 678 l 271 610 l 678 610 l 678 339 l 271 339 l 271 271 l 814 271 l 814 0 l 0 0 l 0 949 l 814 949 m 238 1017 q 142 1057 182 1017 q 102 1153 102 1097 q 142 1249 102 1209 q 238 1289 182 1289 q 334 1249 294 1289 q 374 1153 374 1209 q 334 1057 374 1097 q 238 1017 294 1017 m 577 1017 q 481 1057 521 1017 q 441 1153 441 1097 q 481 1249 441 1209 q 577 1289 521 1289 q 673 1249 633 1289 q 713 1153 713 1209 q 673 1057 713 1097 q 577 1017 633 1017 z "},"ì":{"ha":339,"x_min":-68,"x_max":339,"o":"m 271 949 l 271 0 l 0 0 l 0 949 l 271 949 m -68 1356 l 203 1356 l 339 1017 l 68 1017 l -68 1356 z "},"í":{"ha":339,"x_min":-39,"x_max":368,"o":"m 271 949 l 271 0 l 0 0 l 0 949 l 271 949 m 232 1017 l -39 1017 l 96 1356 l 368 1356 l 232 1017 z "},"î":{"ha":339,"x_min":-203,"x_max":475,"o":"m 271 949 l 271 0 l 0 0 l 0 949 l 271 949 m 339 1356 l 475 1017 l 203 1017 l 136 1187 l 68 1017 l -203 1017 l -68 1356 l 339 1356 z "},"ï":{"ha":339,"x_min":-168,"x_max":442,"o":"m 271 949 l 271 0 l 0 0 l 0 949 l 271 949 m -33 1017 q -129 1057 -89 1017 q -168 1153 -168 1097 q -129 1249 -168 1209 q -33 1289 -89 1289 q 63 1249 24 1289 q 103 1153 103 1209 q 63 1057 103 1097 q -33 1017 24 1017 m 307 1017 q 211 1057 250 1017 q 171 1153 171 1097 q 211 1249 171 1209 q 307 1289 250 1289 q 402 1249 363 1289 q 442 1153 442 1209 q 402 1057 442 1097 q 307 1017 363 1017 z "},"ð":{"ha":1017,"x_min":0,"x_max":949,"o":"m 618 331 q 648 361 618 331 q 678 475 678 391 q 618 618 678 559 q 475 678 559 678 q 331 618 391 678 q 271 475 271 559 q 331 331 271 391 q 475 271 391 271 q 618 331 559 271 m 456 1163 q 810 810 775 846 q 949 475 949 671 q 810 139 949 278 q 475 0 671 0 q 139 139 278 0 q 0 475 0 278 q 139 810 0 671 q 318 928 212 884 l 269 974 l 178 882 l 0 1048 l 96 1152 l 2 1239 l 182 1424 l 277 1333 l 363 1424 l 543 1252 l 456 1163 z "},"ñ":{"ha":949,"x_min":0,"x_max":882,"o":"m 271 475 l 271 0 l 0 0 l 0 949 l 271 949 l 610 475 l 610 949 l 882 949 l 882 0 l 610 0 l 271 475 m 99 1040 l 99 1311 q 286 1345 201 1345 q 438 1311 370 1345 q 536 1289 484 1289 q 777 1379 642 1289 l 777 1107 q 536 1017 642 1017 q 438 1040 484 1017 q 286 1074 370 1074 q 99 1040 201 1074 z "},"ò":{"ha":1017,"x_min":0,"x_max":949,"o":"m 475 0 q 139 139 278 0 q 0 475 0 278 q 139 810 0 671 q 475 949 278 949 q 810 810 671 949 q 949 475 949 671 q 810 139 949 278 q 475 0 671 0 m 475 271 q 618 331 559 271 q 678 475 678 391 q 618 618 678 559 q 475 678 559 678 q 331 618 391 678 q 271 475 271 559 q 331 331 271 391 q 475 271 391 271 m 242 1356 l 513 1356 l 649 1017 l 378 1017 l 242 1356 z "},"ó":{"ha":1017,"x_min":0,"x_max":949,"o":"m 475 0 q 139 139 278 0 q 0 475 0 278 q 139 810 0 671 q 475 949 278 949 q 810 810 671 949 q 949 475 949 671 q 810 139 949 278 q 475 0 671 0 m 475 271 q 618 331 559 271 q 678 475 678 391 q 618 618 678 559 q 475 678 559 678 q 331 618 391 678 q 271 475 271 559 q 331 331 271 391 q 475 271 391 271 m 572 1017 l 300 1017 l 436 1356 l 707 1356 l 572 1017 z "},"ô":{"ha":1017,"x_min":0,"x_max":949,"o":"m 475 0 q 139 139 278 0 q 0 475 0 278 q 139 810 0 671 q 475 949 278 949 q 810 810 671 949 q 949 475 949 671 q 810 139 949 278 q 475 0 671 0 m 475 271 q 618 331 559 271 q 678 475 678 391 q 618 618 678 559 q 475 678 559 678 q 331 618 391 678 q 271 475 271 559 q 331 331 271 391 q 475 271 391 271 m 678 1356 l 814 1017 l 543 1017 l 475 1187 l 407 1017 l 136 1017 l 271 1356 l 678 1356 z "},"õ":{"ha":1017,"x_min":0,"x_max":949,"o":"m 475 0 q 139 139 278 0 q 0 475 0 278 q 139 810 0 671 q 475 949 278 949 q 810 810 671 949 q 949 475 949 671 q 810 139 949 278 q 475 0 671 0 m 475 271 q 618 331 559 271 q 678 475 678 391 q 618 618 678 559 q 475 678 559 678 q 331 618 391 678 q 271 475 271 559 q 331 331 271 391 q 475 271 391 271 m 136 1040 l 136 1311 q 322 1345 237 1345 q 475 1311 407 1345 q 573 1289 520 1289 q 814 1379 678 1289 l 814 1107 q 573 1017 678 1017 q 475 1040 520 1017 q 322 1074 407 1074 q 136 1040 237 1074 z "},"ö":{"ha":1017,"x_min":0,"x_max":949,"o":"m 475 0 q 139 139 278 0 q 0 475 0 278 q 139 810 0 671 q 475 949 278 949 q 810 810 671 949 q 949 475 949 671 q 810 139 949 278 q 475 0 671 0 m 475 271 q 618 331 559 271 q 678 475 678 391 q 618 618 678 559 q 475 678 559 678 q 331 618 391 678 q 271 475 271 559 q 331 331 271 391 q 475 271 391 271 m 305 1017 q 209 1057 249 1017 q 170 1153 170 1097 q 209 1249 170 1209 q 305 1289 249 1289 q 401 1249 361 1289 q 441 1153 441 1209 q 401 1057 441 1097 q 305 1017 361 1017 m 644 1017 q 548 1057 588 1017 q 509 1153 509 1097 q 548 1249 509 1209 q 644 1289 588 1289 q 740 1249 701 1289 q 780 1153 780 1209 q 740 1057 780 1097 q 644 1017 701 1017 z "},"÷":{"ha":814,"x_min":68,"x_max":746,"o":"m 746 610 l 746 339 l 68 339 l 68 610 l 746 610 m 407 678 q 311 718 351 678 q 271 814 271 758 q 311 910 271 870 q 407 949 351 949 q 503 910 463 949 q 543 814 543 870 q 503 718 543 758 q 407 678 463 678 m 407 0 q 311 40 351 0 q 271 136 271 79 q 311 232 271 192 q 407 271 351 271 q 503 232 463 271 q 543 136 543 192 q 503 40 543 79 q 407 0 463 0 z "},"ø":{"ha":1017,"x_min":0,"x_max":949,"o":"m 791 829 q 810 810 801 820 q 949 475 949 671 q 810 139 949 278 q 475 0 671 0 q 382 8 427 0 l 311 -136 l 27 -136 l 157 122 q 139 139 148 130 q 0 475 0 278 q 139 810 0 671 q 475 949 278 949 q 570 941 524 949 l 644 1085 l 919 1085 l 791 829 m 437 675 q 331 618 376 664 q 271 475 271 559 q 291 387 271 427 l 437 675 m 515 275 q 618 331 574 286 q 678 475 678 391 q 659 563 678 523 l 515 275 z "},"ù":{"ha":882,"x_min":0,"x_max":814,"o":"m 0 475 l 0 949 l 271 949 l 271 475 q 407 271 271 271 q 543 475 543 271 l 543 949 l 814 949 l 814 475 q 407 0 814 0 q 0 475 0 0 m 178 1356 l 449 1356 l 585 1017 l 313 1017 l 178 1356 z "},"ú":{"ha":882,"x_min":0,"x_max":814,"o":"m 0 475 l 0 949 l 271 949 l 271 475 q 407 271 271 271 q 543 475 543 271 l 543 949 l 814 949 l 814 475 q 407 0 814 0 q 0 475 0 0 m 505 1017 l 234 1017 l 370 1356 l 641 1356 l 505 1017 z "},"û":{"ha":882,"x_min":0,"x_max":814,"o":"m 0 475 l 0 949 l 271 949 l 271 475 q 407 271 271 271 q 543 475 543 271 l 543 949 l 814 949 l 814 475 q 407 0 814 0 q 0 475 0 0 m 610 1356 l 746 1017 l 475 1017 l 407 1187 l 339 1017 l 68 1017 l 203 1356 l 610 1356 z "},"ü":{"ha":882,"x_min":0,"x_max":814,"o":"m 0 475 l 0 949 l 271 949 l 271 475 q 407 271 271 271 q 543 475 543 271 l 543 949 l 814 949 l 814 475 q 407 0 814 0 q 0 475 0 0 m 236 1017 q 140 1057 180 1017 q 100 1153 100 1097 q 140 1249 100 1209 q 236 1289 180 1289 q 332 1249 292 1289 q 372 1153 372 1209 q 332 1057 372 1097 q 236 1017 292 1017 m 575 1017 q 479 1057 519 1017 q 439 1153 439 1097 q 479 1249 439 1209 q 575 1289 519 1289 q 671 1249 631 1289 q 711 1153 711 1209 q 671 1057 711 1097 q 575 1017 631 1017 z "},"ý":{"ha":1017,"x_min":0,"x_max":949,"o":"m 572 1017 l 300 1017 l 436 1356 l 707 1356 l 572 1017 m 339 407 l 0 949 l 290 949 l 475 678 l 660 949 l 949 949 l 610 407 l 610 0 l 339 0 l 339 407 z "},"þ":{"ha":949,"x_min":0,"x_max":882,"o":"m 0 949 l 271 949 l 271 814 l 475 814 q 882 475 882 814 q 475 136 882 136 l 271 136 l 271 0 l 0 0 l 0 949 m 271 543 l 271 407 l 475 407 q 610 475 610 407 q 475 543 610 543 l 271 543 z "},"ÿ":{"ha":1017,"x_min":0,"x_max":949,"o":"m 339 407 l 0 949 l 290 949 l 475 678 l 660 949 l 949 949 l 610 407 l 610 0 l 339 0 l 339 407 m 307 1017 q 211 1057 251 1017 q 172 1153 172 1097 q 211 1249 172 1209 q 307 1289 251 1289 q 403 1249 363 1289 q 443 1153 443 1209 q 403 1057 443 1097 q 307 1017 363 1017 m 646 1017 q 550 1057 590 1017 q 511 1153 511 1097 q 550 1249 511 1209 q 646 1289 590 1289 q 742 1249 703 1289 q 782 1153 782 1209 q 742 1057 782 1097 q 646 1017 703 1017 z "},"ı":{"ha":339,"x_min":0,"x_max":271,"o":"m 271 949 l 271 0 l 0 0 l 0 949 l 271 949 z "},"ˆ":{"ha":746,"x_min":0,"x_max":678,"o":"m 543 1356 l 678 1017 l 407 1017 l 339 1187 l 271 1017 l 0 1017 l 136 1356 l 543 1356 z "},"ˇ":{"ha":746,"x_min":0,"x_max":678,"o":"m 339 1187 l 407 1356 l 678 1356 l 543 1017 l 136 1017 l 0 1356 l 271 1356 l 339 1187 z "},"ˉ":{"ha":610,"x_min":0,"x_max":543,"o":"m 543 1289 l 543 1017 l 0 1017 l 0 1289 l 543 1289 z "},"˘":{"ha":746,"x_min":0,"x_max":678,"o":"m 0 1356 l 271 1356 q 339 1255 305 1255 q 407 1356 373 1255 l 678 1356 q 339 1017 509 1017 q 0 1356 170 1017 z "},"˙":{"ha":407,"x_min":68,"x_max":339,"o":"m 203 1017 q 107 1060 147 1017 q 68 1162 68 1103 q 107 1265 68 1223 q 203 1308 147 1308 q 299 1265 260 1308 q 339 1162 339 1223 q 299 1060 339 1103 q 203 1017 260 1017 z "},"˚":{"ha":475,"x_min":7,"x_max":414,"o":"m 211 1057 q 284 1090 254 1057 q 314 1168 314 1122 q 284 1246 314 1214 q 211 1279 254 1279 q 137 1246 168 1279 q 107 1168 107 1214 q 137 1090 107 1122 q 211 1057 168 1057 m 210 959 q 66 1023 125 959 q 7 1177 7 1087 q 66 1331 7 1267 q 210 1395 125 1395 q 354 1331 294 1395 q 414 1177 414 1267 q 354 1023 414 1087 q 210 959 294 959 z "},"˛":{"ha":949,"x_min":343,"x_max":610,"o":"m 580 -237 q 482 -277 539 -277 q 384 -237 425 -277 q 343 -138 343 -196 q 384 -41 343 -81 q 482 0 425 0 q 580 -41 539 0 q 610 -85 600 -61 l 538 -119 q 524 -97 534 -107 q 482 -79 507 -79 q 440 -97 457 -79 q 422 -138 422 -114 q 440 -181 422 -163 q 482 -198 457 -198 q 524 -180 507 -198 q 538 -159 533 -171 l 610 -192 q 580 -237 600 -216 z "},"˜":{"ha":694,"x_min":0,"x_max":678,"o":"m 0 1040 l 0 1311 q 186 1345 102 1345 q 339 1311 271 1345 q 437 1289 385 1289 q 678 1379 543 1289 l 678 1107 q 437 1017 543 1017 q 339 1040 385 1017 q 186 1074 271 1074 q 0 1040 102 1074 z "},"˝":{"ha":882,"x_min":0,"x_max":777,"o":"m 271 610 l 0 610 l 136 949 l 407 949 l 271 610 m 642 610 l 370 610 l 506 949 l 777 949 l 642 610 z "},"–":{"ha":746,"x_min":0,"x_max":678,"o":"m 678 610 l 678 339 l 0 339 l 0 610 l 678 610 z "},"—":{"ha":1356,"x_min":0,"x_max":1288,"o":"m 1288 610 l 1288 339 l 0 339 l 0 610 l 1288 610 z "},"‘":{"ha":407,"x_min":68,"x_max":339,"o":"m 339 949 l 339 543 l 68 543 l 68 949 l 339 949 z "},"’":{"ha":407,"x_min":68,"x_max":339,"o":"m 339 949 l 339 543 l 68 543 l 68 949 l 339 949 z "},"‚":{"ha":407,"x_min":68,"x_max":339,"o":"m 339 136 l 339 -271 l 68 -271 l 68 136 l 339 136 z "},"“":{"ha":746,"x_min":68,"x_max":678,"o":"m 339 949 l 339 543 l 68 543 l 68 949 l 339 949 m 678 949 l 678 543 l 407 543 l 407 949 l 678 949 z "},"”":{"ha":746,"x_min":68,"x_max":678,"o":"m 339 949 l 339 543 l 68 543 l 68 949 l 339 949 m 678 949 l 678 543 l 407 543 l 407 949 l 678 949 z "},"„":{"ha":746,"x_min":68,"x_max":678,"o":"m 339 136 l 339 -271 l 68 -271 l 68 136 l 339 136 m 678 136 l 678 -271 l 407 -271 l 407 136 l 678 136 z "},"•":{"ha":407,"x_min":68,"x_max":339,"o":"m 203 339 q 107 379 147 339 q 68 475 68 418 q 107 571 68 531 q 203 610 147 610 q 299 571 260 610 q 339 475 339 531 q 299 379 339 418 q 203 339 260 339 z "},"…":{"ha":1221,"x_min":68,"x_max":1153,"o":"m 1017 0 q 921 40 961 0 q 882 136 882 79 q 921 232 882 192 q 1017 271 961 271 q 1113 232 1074 271 q 1153 136 1153 192 q 1113 40 1153 79 q 1017 0 1074 0 m 610 0 q 514 40 554 0 q 475 136 475 79 q 514 232 475 192 q 610 271 554 271 q 706 232 667 271 q 746 136 746 192 q 706 40 746 79 q 610 0 667 0 m 203 0 q 107 40 147 0 q 68 136 68 79 q 107 232 68 192 q 203 271 147 271 q 299 232 260 271 q 339 136 339 192 q 299 40 339 79 q 203 0 260 0 z "},"‹":{"ha":882,"x_min":68,"x_max":814,"o":"m 68 610 l 814 949 l 814 678 l 339 475 l 814 271 l 814 0 l 68 339 l 68 610 z "},"›":{"ha":882,"x_min":68,"x_max":814,"o":"m 814 339 l 68 0 l 68 271 l 543 475 l 68 678 l 68 949 l 814 610 l 814 339 z "},"€":{"ha":1153,"x_min":68,"x_max":1051,"o":"m 459 339 q 467 331 463 335 q 610 271 526 271 q 754 331 694 271 q 802 404 787 363 l 1050 294 q 946 139 1016 209 q 610 0 807 0 q 275 139 414 0 q 154 339 186 227 l 68 339 l 68 610 l 154 610 q 275 810 186 722 q 610 949 414 949 q 946 810 807 949 q 1051 656 1016 741 l 804 540 q 754 618 789 583 q 610 678 694 678 q 467 618 526 678 q 459 610 463 614 l 678 610 l 678 339 l 459 339 z "},"™":{"ha":882,"x_min":68,"x_max":796,"o":"m 273 853 l 273 610 l 176 610 l 176 853 l 68 853 l 68 950 l 383 950 l 383 853 l 273 853 m 796 950 l 796 610 l 699 610 l 699 772 l 650 610 l 553 610 l 505 772 l 505 610 l 408 610 l 408 950 l 529 950 l 602 756 l 675 950 l 796 950 z "},"−":{"ha":814,"x_min":68,"x_max":746,"o":"m 746 610 l 746 339 l 68 339 l 68 610 l 746 610 z "},"Œ":{"ha":1628,"x_min":0,"x_max":1560,"o":"m 618 331 q 648 361 618 331 q 678 475 678 391 q 618 618 678 559 q 475 678 559 678 q 331 618 391 678 q 271 475 271 559 q 331 331 271 391 q 475 271 391 271 q 618 331 559 271 m 746 84 q 475 0 628 0 q 139 139 278 0 q 0 475 0 278 q 139 810 0 671 q 475 949 278 949 q 746 865 628 949 l 746 949 l 1560 949 l 1560 678 l 1017 678 l 1017 610 l 1424 610 l 1424 339 l 1017 339 l 1017 271 l 1560 271 l 1560 0 l 746 0 l 746 84 z "},"œ":{"ha":1628,"x_min":0,"x_max":1560,"o":"m 746 84 q 475 0 628 0 q 139 139 278 0 q 0 475 0 278 q 139 810 0 671 q 475 949 278 949 q 746 865 628 949 l 746 949 l 1560 949 l 1560 678 l 1017 678 l 1017 610 l 1424 610 l 1424 339 l 1017 339 l 1017 271 l 1560 271 l 1560 0 l 746 0 l 746 84 m 618 331 q 648 361 618 331 q 678 475 678 391 q 618 618 678 559 q 475 678 559 678 q 331 618 391 678 q 271 475 271 559 q 331 331 271 391 q 475 271 391 271 q 618 331 559 271 z "}}}
